<svg fill="none" height="569" viewBox="0 0 1091 569" width="1091" xmlns="http://www.w3.org/2000/svg" xmlns:xlink="http://www.w3.org/1999/xlink"><linearGradient id="a"><stop offset="0" stop-color="#fff"/><stop offset="1" stop-color="#fff" stop-opacity="0"/></linearGradient><linearGradient id="b" gradientUnits="userSpaceOnUse" x1="727.197" x2="727.59" xlink:href="#a" y1="257.487" y2="257.487"/><linearGradient id="c" gradientUnits="userSpaceOnUse" x1="727.005" x2="727.015" xlink:href="#a" y1="254.874" y2="254.874"/><linearGradient id="d" gradientUnits="userSpaceOnUse" x1="545.197" x2="545.59" xlink:href="#a" y1="257.487" y2="257.487"/><linearGradient id="e" gradientUnits="userSpaceOnUse" x1="545.005" x2="545.014" xlink:href="#a" y1="254.874" y2="254.874"/><linearGradient id="f" gradientUnits="userSpaceOnUse" x1="364.197" x2="364.59" xlink:href="#a" y1="257.487" y2="257.487"/><linearGradient id="g" gradientUnits="userSpaceOnUse" x1="364.005" x2="364.015" xlink:href="#a" y1="254.874" y2="254.874"/><g stroke-opacity=".2"><path d="m182.734 1.56067v566.78933" stroke="#fff"/><path d="m727 324.561v244" stroke="url(#b)"/><path d="m727 1.56079v80.00001" stroke="url(#c)"/><path d="m545 324.561v244" stroke="url(#d)"/><path d="m545 1.56079v80.00001" stroke="url(#e)"/><path d="m364 324.561v244" stroke="url(#f)"/><path d="m364 1.56079v80.00001" stroke="url(#g)"/><g stroke="#fff"><path d="m908.947 1.56067v566.78933"/><path d="m1090.5 1.56067v566.78933"/><path d="m.500061 1.56079-.000025 566.78921"/><path d="m.680908 405.056h1085.929092"/><path d="m.680908 324.257h1085.929092"/><path d="m1 243.061h182"/><path d="m908 243.061h179"/><path d="m910 163.061h177"/><path d="m1 163.061h182"/><path d="m.680908 81.8604h1085.929092"/><path d="m.680908 1.06079 1085.929092.00002"/><path d="m.680908 485.855h1085.929092"/></g></g></svg>